<?xml version="1.0" encoding="UTF-8" standalone="no"?>
<!-- Created with Inkscape (http://www.inkscape.org/) -->

<svg
   xmlns:dc="http://purl.org/dc/elements/1.1/"
   xmlns:cc="http://creativecommons.org/ns#"
   xmlns:rdf="http://www.w3.org/1999/02/22-rdf-syntax-ns#"
   xmlns:svg="http://www.w3.org/2000/svg"
   xmlns="http://www.w3.org/2000/svg"
   xmlns:sodipodi="http://sodipodi.sourceforge.net/DTD/sodipodi-0.dtd"
   xmlns:inkscape="http://www.inkscape.org/namespaces/inkscape"
   width="210mm"
   height="297mm"
   viewBox="0 0 210 297"
   version="1.1"
   id="svg8"
   sodipodi:docname="logo_designs.svg"
   inkscape:version="0.92.3 (2405546, 2018-03-11)">
  <defs
     id="defs2">
    <filter
       inkscape:menu-tooltip="In and out glow with a possible offset and colorizable flood"
       inkscape:menu="Shadows and Glows"
       inkscape:label="Cutout Glow"
       style="color-interpolation-filters:sRGB;"
       id="filter1000">
      <feOffset
         dy="3"
         dx="3"
         id="feOffset990" />
      <feGaussianBlur
         stdDeviation="3"
         result="blur"
         id="feGaussianBlur992" />
      <feFlood
         flood-color="rgb(0,0,0)"
         flood-opacity="1"
         result="flood"
         id="feFlood994" />
      <feComposite
         in="flood"
         in2="SourceGraphic"
         operator="in"
         result="composite"
         id="feComposite996" />
      <feBlend
         in="blur"
         in2="composite"
         mode="normal"
         id="feBlend998" />
    </filter>
    <filter
       inkscape:label="In and Out"
       inkscape:menu="Shadows and Glows"
       inkscape:menu-tooltip="Inner colorized shadow, outer black shadow"
       style="color-interpolation-filters:sRGB;"
       id="filter1118">
      <feGaussianBlur
         result="result0"
         in="SourceAlpha"
         stdDeviation="4"
         id="feGaussianBlur1112" />
      <feOffset
         dx="5"
         dy="5"
         result="result4"
         id="feOffset1114" />
      <feComposite
         in="SourceGraphic"
         in2="result4"
         operator="xor"
         result="result3"
         id="feComposite1116" />
    </filter>
  </defs>
  <sodipodi:namedview
     id="base"
     pagecolor="#ffffff"
     bordercolor="#666666"
     borderopacity="1.0"
     inkscape:pageopacity="0.0"
     inkscape:pageshadow="2"
     inkscape:zoom="0.98994948"
     inkscape:cx="1292.8067"
     inkscape:cy="-1470.8059"
     inkscape:document-units="mm"
     inkscape:current-layer="layer1"
     showgrid="false"
     inkscape:window-width="1366"
     inkscape:window-height="744"
     inkscape:window-x="0"
     inkscape:window-y="0"
     inkscape:window-maximized="1" />
  <metadata
     id="metadata5">
    <rdf:RDF>
      <cc:Work
         rdf:about="">
        <dc:format>image/svg+xml</dc:format>
        <dc:type
           rdf:resource="http://purl.org/dc/dcmitype/StillImage" />
        <dc:title></dc:title>
      </cc:Work>
    </rdf:RDF>
  </metadata>
  <g
     inkscape:label="Layer 1"
     inkscape:groupmode="layer"
     id="layer1">
    <rect
       style="fill:none;fill-opacity:1;stroke:#20da33;stroke-width:3.86500001;stroke-linecap:butt;stroke-linejoin:round;stroke-miterlimit:4;stroke-dasharray:none;stroke-dashoffset:0;stroke-opacity:1"
       id="rect815"
       width="102.05357"
       height="99.785713"
       x="12.85119"
       y="18.809525"
       ry="0" />
    <flowRoot
       xml:space="preserve"
       id="flowRoot817"
       style="font-style:normal;font-variant:normal;font-weight:normal;font-stretch:normal;font-size:40px;line-height:1.25;font-family:FreeSans;-inkscape-font-specification:FreeSans;letter-spacing:0px;word-spacing:0px;fill:#000000;fill-opacity:1;stroke:none"
       transform="matrix(2.2512321,0,0,2.2512321,-237.09895,-1164.7757)"><flowRegion
         id="flowRegion819"
         style="font-style:normal;font-variant:normal;font-weight:normal;font-stretch:normal;font-family:FreeSans;-inkscape-font-specification:FreeSans"><rect
           id="rect821"
           width="352.85715"
           height="148.57143"
           x="115.71429"
           y="525.37683"
           style="font-style:normal;font-variant:normal;font-weight:normal;font-stretch:normal;font-family:FreeSans;-inkscape-font-specification:FreeSans" /></flowRegion><flowPara
         id="flowPara823"
         style="font-style:normal;font-variant:normal;font-weight:normal;font-stretch:normal;font-family:FreeSans;-inkscape-font-specification:FreeSans">%</flowPara></flowRoot>    <g
       aria-label="%"
       transform="matrix(-2.2512321,0,0,-2.2512321,362.47093,1426.1857)"
       style="font-style:normal;font-variant:normal;font-weight:normal;font-stretch:normal;font-size:40px;line-height:1.25;font-family:FreeSans;-inkscape-font-specification:FreeSans;letter-spacing:0px;word-spacing:0px;fill:#000000;fill-opacity:1;stroke:none"
       id="flowRoot817-0">
      <path
         d="m 123.67484,534.97695 q 2.88,0 4.84,2 2,2 2,4.92 0,2.76 -2,4.76 -2,2 -4.8,2 -2.8,0 -4.84,-2 -2,-2.04 -2,-4.84 0,-2.8 2,-4.8 2,-2.04 4.8,-2.04 z m 0,2.8 q -1.64,0 -2.84,1.2 -1.2,1.16 -1.2,2.84 0,1.64 1.2,2.84 1.2,1.2 2.88,1.2 1.64,0 2.84,-1.16 1.2,-1.2 1.2,-2.84 0,-1.72 -1.2,-2.88 -1.16,-1.2 -2.88,-1.2 z m 16.4,-3.76 h 2.64 l -15.8,29.16 h -2.64 z m 3.16,15.48 q 2.88,0 4.84,2 2,2 2,4.88 0,2.76 -2.04,4.76 -2,2 -4.76,2 -2.84,0 -4.84,-2 -2,-2.04 -2,-4.84 0,-2.8 2,-4.8 2,-2 4.8,-2 z m 0,2.8 q -1.64,0 -2.84,1.2 -1.2,1.16 -1.2,2.8 0,1.68 1.2,2.88 1.2,1.16 2.88,1.16 1.64,0 2.84,-1.16 1.2,-1.2 1.2,-2.8 0,-1.72 -1.2,-2.88 -1.16,-1.2 -2.88,-1.2 z"
         style="font-style:normal;font-variant:normal;font-weight:normal;font-stretch:normal;font-family:FreeSans;-inkscape-font-specification:FreeSans"
         id="path864"
         inkscape:connector-curvature="0" />
    </g>
    <rect
       style="fill:none;fill-opacity:1;stroke:#20da33;stroke-width:3.86500001;stroke-linecap:butt;stroke-linejoin:round;stroke-miterlimit:4;stroke-dasharray:none;stroke-dashoffset:0;stroke-opacity:1"
       id="rect815-0"
       width="102.05357"
       height="99.785713"
       x="12.85119"
       y="141.65178"
       ry="0" />
    <rect
       style="fill:#ffffff;fill-opacity:1;stroke:#000000;stroke-width:3.86500001;stroke-linecap:butt;stroke-linejoin:round;stroke-miterlimit:4;stroke-dasharray:none;stroke-dashoffset:0;stroke-opacity:1"
       id="rect815-0-9"
       width="102.05357"
       height="99.785713"
       x="11.717259"
       y="255.42262"
       ry="0" />
    <path
       sodipodi:nodetypes="scssscscsscssscscscccccscscscsssscscscscs"
       inkscape:connector-curvature="0"
       id="path864-3"
       style="font-style:normal;font-variant:normal;font-weight:normal;font-stretch:normal;font-size:medium;line-height:1.25;font-family:FreeSans;-inkscape-font-specification:FreeSans;letter-spacing:0px;word-spacing:0px;fill:#000000;fill-opacity:1;stroke:none;stroke-width:2.25123215"
       d="m 82.91624,335.59932 c -4.322365,0 -7.954346,-1.50083 -10.895963,-4.50247 -3.001635,-3.00163 -4.502464,-6.69365 -4.502464,-11.07606 0,-4.14227 1.500829,-7.71423 4.502464,-10.71586 3.001635,-3.00164 6.603607,-4.50247 10.805914,-4.50247 4.202307,0 7.834288,1.50083 10.895963,4.50247 3.001636,3.06167 4.502465,6.69365 4.502465,10.89596 0,4.20231 -1.500829,7.80428 -4.502465,10.80591 -3.001635,3.06168 -6.603606,4.59252 -10.805914,4.59252 z m 0,-6.30345 c 2.46134,0 4.592514,-0.9005 6.393499,-2.70148 1.800986,-1.74095 2.701479,-3.87212 2.701479,-6.3935 0,-2.46134 -0.900493,-4.59251 -2.701479,-6.3935 -1.800985,-1.80099 -3.962168,-2.70148 -6.483548,-2.70148 -2.46134,0 -4.592514,0.87049 -6.393499,2.61143 -1.800986,1.80099 -2.701479,3.93216 -2.701479,6.3935 0,2.58142 0.900493,4.7426 2.701479,6.48355 1.740945,1.80098 3.902128,2.70148 6.483548,2.70148 z m -53.758184,8.46463 h -5.943253 l 69.779956,-65.64593 h 5.943252 z m 9.724084,-34.84907 c -4.322365,0 -7.954346,-1.50083 -10.895963,-4.50247 -3.001635,-3.00163 -4.502464,-6.66364 -4.502464,-10.98601 0,-4.14227 1.530838,-7.71423 4.592513,-10.71586 3.001636,-3.00164 6.573598,-4.50247 10.715865,-4.50247 4.262325,0 7.894328,1.50083 10.895963,4.50247 3.001636,3.06167 4.502465,6.69365 4.502465,10.89596 0,4.20231 -1.500829,7.80428 -4.502465,10.80591 -3.001635,3.00164 -6.603606,4.50247 -10.805914,4.50247 z m 0,-6.30345 c 2.46134,0 4.592514,-0.9005 6.3935,-2.70148 1.800985,-1.74095 2.701478,-3.84211 2.701478,-6.30345 0,-2.52138 -0.900493,-4.68256 -2.701478,-6.48355 -1.800986,-1.74094 -3.962169,-2.61143 -6.483549,-2.61143 -2.46134,0 -4.592513,0.87049 -6.393499,2.61143 -1.800986,1.80099 -2.701479,3.90213 -2.701479,6.30345 0,2.58142 0.900493,4.7426 2.701479,6.48355 1.740945,1.80098 3.902128,2.70148 6.483548,2.70148 z" />
    <rect
       ry="0"
       y="255.42271"
       x="131.53571"
       height="99.785713"
       width="102.05357"
       id="rect815-0-9-8"
       style="font-style:normal;font-variant:normal;font-weight:normal;font-stretch:normal;font-size:medium;line-height:1.25;font-family:FreeSans;-inkscape-font-specification:FreeSans;letter-spacing:0px;word-spacing:0px;fill:#ffffff;fill-opacity:1;stroke:#000000;stroke-width:3.86500001;stroke-linecap:butt;stroke-linejoin:round;stroke-miterlimit:4;stroke-dasharray:none;stroke-dashoffset:0;stroke-opacity:1" />
    <path
       inkscape:connector-curvature="0"
       id="path864-3-3"
       style="font-style:normal;font-variant:normal;font-weight:normal;font-stretch:normal;font-size:40px;line-height:1.25;font-family:FreeSans;-inkscape-font-specification:FreeSans;letter-spacing:0px;word-spacing:0px;fill:#000000;fill-opacity:1;stroke:none;stroke-width:2.25123215"
       d="m 204.62457,335.59927 q -6.48355,0 -10.89597,-4.50246 -4.50246,-4.50247 -4.50246,-11.07606 0,-6.2134 4.50246,-10.71587 4.50247,-4.50246 10.80592,-4.50246 6.30345,0 10.89596,4.50246 4.50246,4.59251 4.50246,10.89596 0,6.30345 -4.50246,10.80592 -4.50246,4.59251 -10.80591,4.59251 z m 0,-6.30345 q 3.69202,0 6.39349,-2.70148 2.70148,-2.61143 2.70148,-6.3935 0,-3.69202 -2.70148,-6.39349 -2.70147,-2.70148 -6.48354,-2.70148 -3.69202,0 -6.3935,2.61143 -2.70148,2.70147 -2.70148,6.3935 0,3.87211 2.70148,6.48354 2.61143,2.70148 6.48355,2.70148 z m -36.92021,8.46464 h -5.94325 l 35.56946,-65.64593 h 5.94326 z m -7.11389,-34.84908 q -6.48355,0 -10.89597,-4.50246 -4.50246,-4.50247 -4.50246,-10.98601 0,-6.21341 4.59251,-10.71587 4.50247,-4.50246 10.71587,-4.50246 6.3935,0 10.89596,4.50246 4.50246,4.59251 4.50246,10.89596 0,6.30345 -4.50246,10.80592 -4.50246,4.50246 -10.80591,4.50246 z m 0,-6.30345 q 3.69202,0 6.39349,-2.70148 2.70148,-2.61143 2.70148,-6.30345 0,-3.78207 -2.70148,-6.48354 -2.70147,-2.61143 -6.48354,-2.61143 -3.69202,0 -6.3935,2.61143 -2.70148,2.70147 -2.70148,6.30345 0,3.87211 2.70148,6.48354 2.61143,2.70148 6.48355,2.70148 z" />
    <rect
       ry="0"
       y="378.26492"
       x="24.946405"
       height="99.785713"
       width="102.05357"
       id="rect815-0-9-87"
       style="font-style:normal;font-variant:normal;font-weight:normal;font-stretch:normal;font-size:medium;line-height:1.25;font-family:FreeSans;-inkscape-font-specification:FreeSans;letter-spacing:0px;word-spacing:0px;fill:#ffffff;fill-opacity:1;stroke:#000000;stroke-width:3.86500001;stroke-linecap:butt;stroke-linejoin:round;stroke-miterlimit:4;stroke-dasharray:none;stroke-dashoffset:0;stroke-opacity:1" />
    <path
       sodipodi:nodetypes="scssscscsscssscscscccccscscscsssscscscscs"
       inkscape:connector-curvature="0"
       id="path864-3-31"
       style="font-style:normal;font-variant:normal;font-weight:normal;font-stretch:normal;font-size:40px;line-height:1.25;font-family:FreeSans;-inkscape-font-specification:FreeSans;letter-spacing:0px;word-spacing:0px;fill:#000000;fill-opacity:1;stroke:none;stroke-width:2.25123215"
       d="m 96.145426,458.44156 c -4.322366,0 -7.954346,-1.50083 -10.895964,-4.50247 -3.001635,-3.00163 -4.502464,-6.69365 -4.502464,-11.07606 0,-4.14227 1.500829,-7.71423 4.502464,-10.71586 3.001635,-3.00164 6.603607,-4.50247 10.805914,-4.50247 4.202304,0 7.834284,1.50083 10.895964,4.50247 3.00163,3.06167 4.50246,6.69365 4.50246,10.89596 0,4.20231 -1.50083,7.80428 -4.50246,10.80591 -3.00164,3.06168 -6.60361,4.59252 -10.805914,4.59252 z m 0,-6.30345 c 2.461339,0 4.592514,-0.9005 6.393494,-2.70148 1.80099,-1.74095 2.70148,-3.87212 2.70148,-6.3935 0,-2.46134 -0.90049,-4.59251 -2.70148,-6.3935 -1.80098,-1.80099 -3.962164,-2.70148 -6.483544,-2.70148 -2.461339,0 -4.592513,0.87049 -6.393499,2.61143 -1.800986,1.80099 -2.701478,3.93216 -2.701478,6.3935 0,2.58142 0.900492,4.7426 2.701478,6.48355 1.740945,1.80098 3.902128,2.70148 6.483549,2.70148 z m -53.758185,8.46463 h -5.943253 l 69.779952,-65.64593 h 5.94326 z m 9.724085,-34.84907 c -4.322366,0 -7.954346,-1.50083 -10.895964,-4.50247 -3.001635,-3.00163 -4.502464,-6.66364 -4.502464,-10.98601 0,-4.14227 1.530838,-7.71423 4.592514,-10.71587 3.001635,-3.00163 6.573597,-4.50246 10.715864,-4.50246 4.262326,0 7.894328,1.50083 10.895964,4.50246 3.001635,3.06168 4.502464,6.69366 4.502464,10.89597 0,4.20231 -1.500829,7.80428 -4.502464,10.80591 -3.001636,3.00164 -6.603607,4.50247 -10.805914,4.50247 z m 0,-6.30345 c 2.461339,0 4.592513,-0.9005 6.393499,-2.70148 1.800986,-1.74095 2.701478,-3.84211 2.701478,-6.30345 0,-2.52138 -0.900492,-4.68256 -2.701478,-6.48355 -1.800986,-1.74095 -3.962169,-2.61143 -6.483549,-2.61143 -2.461339,0 -4.592513,0.87048 -6.393499,2.61143 -1.800985,1.80099 -2.701478,3.90213 -2.701478,6.30345 0,2.58142 0.900493,4.7426 2.701478,6.48355 1.740946,1.80098 3.902128,2.70148 6.483549,2.70148 z" />
    <path
       style="font-style:normal;font-variant:normal;font-weight:normal;font-stretch:normal;font-size:40px;line-height:1.25;font-family:FreeSans;-inkscape-font-specification:FreeSans;letter-spacing:0px;word-spacing:0px;fill:#000000;fill-opacity:1;stroke:none;stroke-width:3.86500001;stroke-linecap:butt;stroke-linejoin:miter;stroke-miterlimit:4;stroke-dasharray:none;stroke-dashoffset:0;stroke-opacity:1;filter:url(#filter1000)"
       d="m 148.9224,454.23798 v 99.78564 h 102.05372 v -99.78564 z m 65.79496,17.06975 h 5.94331 l -35.56942,65.64614 h -5.94331 z m -36.82982,0.0904 c 4.26236,0 7.89435,1.50093 10.89599,4.50258 3.00165,3.06168 4.50205,6.69366 4.50205,10.89599 0,4.2023 -1.5004,7.80388 -4.50205,10.80553 -3.00164,3.00164 -6.60376,4.50257 -10.80606,4.50257 -4.32236,0 -7.95438,-1.50093 -10.89599,-4.50257 -3.00164,-3.00165 -4.50254,-6.66353 -4.50254,-10.9859 0,-4.14226 1.5308,-7.71398 4.59248,-10.71562 3.00164,-3.00165 6.57386,-4.50258 10.71612,-4.50258 z m 0,6.30352 c -2.46134,0 -4.59293,0.87024 -6.39392,2.6112 -1.80099,1.80099 -2.70113,3.90218 -2.70113,6.30348 0,2.58141 0.90014,4.74237 2.70113,6.48333 1.74096,1.80099 3.90245,2.70166 6.48385,2.70166 2.46134,0 4.59243,-0.90067 6.3934,-2.70166 1.80099,-1.74096 2.70166,-3.84162 2.70166,-6.30296 0,-2.5214 -0.90067,-4.68286 -2.70166,-6.48385 -1.80097,-1.74096 -3.96193,-2.6112 -6.48333,-2.6112 z m 44.03402,26.294 c 4.2023,0 7.83429,1.50092 10.89597,4.50254 3.00164,3.06168 4.50204,6.6937 4.50204,10.89599 0,4.2023 -1.5004,7.80442 -4.50204,10.80606 -3.00165,3.06168 -6.60376,4.59248 -10.80606,4.59248 -4.32237,0 -7.95435,-1.50093 -10.89597,-4.50257 -3.00164,-3.00165 -4.50257,-6.6934 -4.50257,-11.0758 0,-4.14227 1.50093,-7.71451 4.50257,-10.71616 3.00165,-3.00162 6.60377,-4.50254 10.80606,-4.50254 z m 0,6.30348 c -2.46134,0 -4.59242,0.87077 -6.39341,2.61173 -1.801,1.80097 -2.70164,3.93205 -2.70164,6.39339 0,2.58144 0.90064,4.74239 2.70164,6.48333 1.74095,1.80099 3.90191,2.70166 6.48332,2.70166 2.46134,0 4.59243,-0.90067 6.39342,-2.70166 1.80099,-1.74094 2.70163,-3.87202 2.70163,-6.3934 0,-2.46136 -0.90064,-4.59242 -2.70163,-6.39341 -1.80099,-1.801 -3.96195,-2.70164 -6.48333,-2.70164 z"
       id="rect815-0-9-8-0"
       inkscape:connector-curvature="0" />
    <path
       style="font-style:normal;font-variant:normal;font-weight:normal;font-stretch:normal;font-size:40px;line-height:1.25;font-family:FreeSans;-inkscape-font-specification:FreeSans;letter-spacing:0px;word-spacing:0px;fill:#ff00ff;fill-opacity:1;stroke:none;stroke-width:3.86500001;stroke-linecap:butt;stroke-linejoin:miter;stroke-miterlimit:4;stroke-dasharray:none;stroke-dashoffset:0;stroke-opacity:1"
       d="m 318.76501,454.05589 v 99.78564 h 102.05372 v -99.78564 z m 65.79497,17.06975 h 5.9433 l -35.56941,65.64614 h -5.94332 z m -36.82982,0.0904 c 4.26235,0 7.89434,1.50093 10.89598,4.50258 3.00165,3.06168 4.50205,6.69366 4.50205,10.89599 0,4.2023 -1.5004,7.80388 -4.50205,10.80553 -3.00164,3.00164 -6.60375,4.50257 -10.80605,4.50257 -4.32237,0 -7.95439,-1.50093 -10.896,-4.50257 -3.00164,-3.00165 -4.50254,-6.66353 -4.50254,-10.9859 0,-4.14226 1.5308,-7.71398 4.59248,-10.71562 3.00164,-3.00165 6.57386,-4.50258 10.71613,-4.50258 z m 0,6.30352 c -2.46135,0 -4.59294,0.87024 -6.39393,2.6112 -1.80099,1.80099 -2.70113,3.90218 -2.70113,6.30348 0,2.58141 0.90014,4.74237 2.70113,6.48333 1.74096,1.80099 3.90246,2.70166 6.48386,2.70166 2.46133,0 4.59242,-0.90067 6.39339,-2.70166 1.80099,-1.74096 2.70167,-3.84162 2.70167,-6.30296 0,-2.5214 -0.90068,-4.68286 -2.70167,-6.48385 -1.80097,-1.74096 -3.96192,-2.6112 -6.48332,-2.6112 z m 44.03402,26.294 c 4.2023,0 7.83428,1.50092 10.89596,4.50254 3.00164,3.06168 4.50204,6.6937 4.50204,10.89599 0,4.2023 -1.5004,7.80442 -4.50204,10.80606 -3.00165,3.06168 -6.60375,4.59248 -10.80605,4.59248 -4.32237,0 -7.95436,-1.50093 -10.89597,-4.50257 -3.00164,-3.00165 -4.50257,-6.6934 -4.50257,-11.0758 0,-4.14227 1.50093,-7.71451 4.50257,-10.71616 3.00165,-3.00162 6.60377,-4.50254 10.80606,-4.50254 z m 0,6.30348 c -2.46134,0 -4.59243,0.87077 -6.39341,2.61173 -1.80101,1.80097 -2.70164,3.93205 -2.70164,6.39339 0,2.58144 0.90063,4.74239 2.70164,6.48333 1.74095,1.80099 3.90191,2.70166 6.48332,2.70166 2.46134,0 4.59242,-0.90067 6.39341,-2.70166 1.80099,-1.74094 2.70163,-3.87202 2.70163,-6.3934 0,-2.46136 -0.90064,-4.59242 -2.70163,-6.39341 -1.80099,-1.801 -3.96194,-2.70164 -6.48332,-2.70164 z"
       id="rect815-0-9-8-0-3"
       inkscape:connector-curvature="0" />
    <path
       style="fill:#f2f2f2;fill-opacity:1;stroke:#f2f2f2;stroke-width:3;stroke-linecap:butt;stroke-linejoin:miter;stroke-miterlimit:4;stroke-dasharray:none;stroke-dashoffset:0;stroke-opacity:1;filter:url(#filter1118);paint-order:fill markers stroke"
       d="m 294.47305,638.4553 v 99.78564 H 396.52676 V 638.4553 Z m 68.50486,10.928 h 8.12406 l -42.22483,77.92911 h -8.231 z m -42.75966,0.85527 c 5.48746,0 10.11973,1.92439 13.89682,5.77276 3.84837,3.77708 5.77279,8.40936 5.77279,13.89684 0,5.2024 -1.96012,9.72754 -5.87976,13.5759 -3.84834,3.77709 -8.44492,5.66582 -13.78985,5.66582 -5.4162,0 -10.04847,-1.88873 -13.89684,-5.66582 -3.84834,-3.84836 -5.77276,-8.44491 -5.77276,-13.78984 0,-5.34495 1.92442,-9.90582 5.77276,-13.6829 3.84837,-3.84837 8.48064,-5.77276 13.89684,-5.77276 z m 0,10.5828 c -2.4943,0 -4.63243,0.89107 -6.41408,2.67272 -1.78165,1.71037 -2.67218,3.77708 -2.67218,6.20014 0,2.49431 0.89053,4.63243 2.67218,6.41405 1.78165,1.7104 3.91978,2.56525 6.41408,2.56525 2.49431,0 4.63244,-0.85485 6.41409,-2.56525 1.78165,-1.78162 2.67218,-3.88405 2.67218,-6.30708 0,-2.49431 -0.89053,-4.59674 -2.67218,-6.30711 -1.78165,-1.78165 -3.91978,-2.67272 -6.41409,-2.67272 z m 50.56333,26.72498 c 5.48746,0 10.11973,1.9239 13.89682,5.77226 3.84836,3.77709 5.77226,8.44505 5.77226,14.00381 0,5.2024 -1.95961,9.72807 -5.87923,13.57644 -3.84837,3.77708 -8.44492,5.66528 -13.78985,5.66528 -5.4162,0 -10.04847,-1.8882 -13.89684,-5.66528 -3.84836,-3.84837 -5.77276,-8.48064 -5.77276,-13.89685 0,-5.34492 1.9244,-9.90631 5.77276,-13.6834 3.84837,-3.84836 8.48064,-5.77226 13.89684,-5.77226 z m 0,10.58283 c -2.4943,0 -4.63243,0.89104 -6.41408,2.67269 -1.78165,1.7104 -2.67271,3.81281 -2.67271,6.30711 0,2.49431 0.89106,4.63193 2.67271,6.41356 1.78165,1.7104 3.91978,2.56574 6.41408,2.56574 2.49431,0 4.63191,-0.85534 6.41356,-2.56574 1.78165,-1.78163 2.67271,-3.88406 2.67271,-6.30709 0,-2.4943 -0.89106,-4.63193 -2.67271,-6.41358 -1.78165,-1.78165 -3.91925,-2.67269 -6.41356,-2.67269 z"
       id="rect815-0-0-1-9"
       inkscape:connector-curvature="0" />
    <rect
       style="fill:#000000;fill-opacity:1;stroke:none;stroke-width:3.86500001;stroke-linecap:butt;stroke-linejoin:round;stroke-miterlimit:4;stroke-dasharray:none;stroke-dashoffset:0;stroke-opacity:1"
       id="rect815-0-0-1"
       width="102.05357"
       height="99.785713"
       x="97.895828"
       y="621.68152"
       ry="0" />
    <g
       aria-label="%"
       transform="matrix(-2.8558617,0,0,-2.8558617,655.59638,2235.2675)"
       style="font-style:normal;font-variant:normal;font-weight:normal;font-stretch:normal;font-size:40px;line-height:1.25;font-family:FreeSans;-inkscape-font-specification:FreeSans;letter-spacing:0px;word-spacing:0px;fill:#00ff00;fill-opacity:1;stroke:none"
       id="flowRoot817-0-1-7" />
    <flowRoot
       xml:space="preserve"
       id="flowRoot817-1"
       style="font-style:normal;font-variant:normal;font-weight:normal;font-stretch:normal;font-size:40px;line-height:1.25;font-family:FreeSans;-inkscape-font-specification:FreeSans;letter-spacing:0px;word-spacing:0px;fill:#00ff00;fill-opacity:1;stroke:none"
       transform="matrix(2.6724706,0,0,2.6724706,-207.78498,-794.53485)"><flowRegion
         id="flowRegion819-0"
         style="font-style:normal;font-variant:normal;font-weight:normal;font-stretch:normal;font-family:FreeSans;-inkscape-font-specification:FreeSans;fill:#00ff00"><rect
           id="rect821-3"
           width="352.85715"
           height="148.57143"
           x="115.71429"
           y="525.37683"
           style="font-style:normal;font-variant:normal;font-weight:normal;font-stretch:normal;font-family:FreeSans;-inkscape-font-specification:FreeSans;fill:#00ff00" /></flowRegion><flowPara
         id="flowPara823-5"
         style="font-style:normal;font-variant:normal;font-weight:normal;font-stretch:normal;font-family:FreeSans;-inkscape-font-specification:FreeSans;fill:#00ff00">%</flowPara></flowRoot>    <g
       id="g1171"
       transform="translate(-271.0113,-50.78121)">
      <rect
         ry="0"
         y="800.08636"
         x="361.34525"
         height="99.785713"
         width="102.05357"
         id="rect815-0-0-1-1"
         style="fill:#000000;fill-opacity:1;stroke:none;stroke-width:3.86500001;stroke-linecap:butt;stroke-linejoin:round;stroke-miterlimit:4;stroke-dasharray:none;stroke-dashoffset:0;stroke-opacity:1" />
      <flowRoot
         transform="matrix(2.6724705,0,0,2.6724705,55.664437,-616.13009)"
         style="font-style:normal;font-variant:normal;font-weight:normal;font-stretch:normal;font-size:40px;line-height:1.25;font-family:FreeSans;-inkscape-font-specification:FreeSans;letter-spacing:0px;word-spacing:0px;fill:#00ff00;fill-opacity:1;stroke:none"
         id="flowRoot817-1-1"
         xml:space="preserve"><flowRegion
           style="font-style:normal;font-variant:normal;font-weight:normal;font-stretch:normal;font-family:FreeSans;-inkscape-font-specification:FreeSans;fill:#00ff00"
           id="flowRegion819-0-9"><rect
             style="font-style:normal;font-variant:normal;font-weight:normal;font-stretch:normal;font-family:FreeSans;-inkscape-font-specification:FreeSans;fill:#00ff00"
             y="525.37683"
             x="115.71429"
             height="148.57143"
             width="352.85715"
             id="rect821-3-1" /></flowRegion><flowPara
           style="font-style:normal;font-variant:normal;font-weight:normal;font-stretch:normal;font-family:FreeSans;-inkscape-font-specification:FreeSans;fill:#00ff00"
           id="flowPara823-5-3">%</flowPara></flowRoot>    </g>
  </g>
</svg>
